<?xml version="1.0" encoding="UTF-8"?>
<svg xmlns="http://www.w3.org/2000/svg" version="1.1" viewBox="0 0 41 21">
  <defs>
    <style>
      .cls-1 {
        fill: #fff;
      }
    </style>
  </defs>
  <!-- Generator: Adobe Illustrator 28.7.1, SVG Export Plug-In . SVG Version: 1.2.0 Build 142)  -->
  <g>
    <g id="Layer_1">
      <path class="cls-1" d="M14.2,1.3c1.7,0,3.6.3,5.4.9.6.2,1.2.2,1.8,0,2.4-.8,4.9-1.1,7.5-.8,2.5.2,4.9.8,7,2.2,1.4.8,2.6,1.8,3.5,3.2,1.8,2.9,1.3,6.7-1.3,9-2.3,2.1-5,3.3-8.1,3.7-3.1.4-6.2.2-9.2-.8-.2,0-.4,0-.5,0-2.3.8-4.6,1.1-7,1.1-3.6-.1-7-1.1-9.8-3.4-1.5-1.3-2.6-2.9-2.9-4.9-.3-1.8.3-3.3,1.3-4.8,1-1.4,2.3-2.3,3.7-3.1,2.6-1.4,5.4-2.2,8.6-2.1ZM3.5,10.3h0c.5,0,1.1,0,1.6,0,.2,0,.3,0,.3-.3.2-1,.5-2,.7-3,0-.3,0-.4-.3-.4-.8,0-1.7,0-2.5,0-.2,0-.5.2-.6.3-.6.9-1,1.8-1.2,2.9,0,.3,0,.4.3.4.5,0,1.1,0,1.6,0ZM3.5,10.9c-.6,0-1.1,0-1.7,0-.2,0-.3,0-.2.3.2,1.1.6,2.2,1.3,3.1.1.2.4.3.5.3.8,0,1.7,0,2.5,0,.3,0,.3-.1.2-.3-.2-1-.5-2-.7-3,0-.2-.1-.3-.4-.3-.5,0-1.1,0-1.6,0ZM29.4,10.1h0c.5,0,1,0,1.6,0,.2,0,.3,0,.3-.3,0-1-.1-2-.5-3,0-.1-.2-.2-.3-.2-.9,0-1.8,0-2.7,0-.3,0-.4.2-.4.5,0,.9,0,1.7,0,2.6,0,.4,0,.5.5.5.5,0,1,0,1.4,0ZM35,14.4c1,0,2,0,3,0,.1,0,.3-.1.3-.2.3-.5.7-1.1,1-1.6.2-.5.3-1.1.5-1.6-.1,0-.1,0-.2,0-1.2,0-2.3,0-3.5,0-.3,0-.3.2-.3.4,0,.5-.1.9-.2,1.4-.1.6-.3,1.2-.5,1.8ZM29.4,10.8s0,0,0,0c-.5,0-1,0-1.5,0-.3,0-.4,0-.4.4,0,.9,0,1.8,0,2.8,0,.3,0,.4.4.4.9,0,1.7,0,2.6,0,.3,0,.4-.1.5-.4.3-.9.4-1.9.4-2.9,0-.2,0-.3-.3-.3-.5,0-1.1,0-1.6,0ZM11.8,10.2s0,0,0,0c.5,0,1,0,1.6,0,.3,0,.4,0,.4-.4,0-1,0-1.9,0-2.9,0-.2,0-.3-.3-.3-.9,0-1.8,0-2.7,0-.2,0-.3,0-.3.3-.3,1-.5,2-.5,3,0,.2,0,.3.3.3.5,0,1,0,1.6,0ZM24.8,10.8s0,0,0,0c-.5,0-1,0-1.5,0-.4,0-.5,0-.4.4.1.9.3,1.8.4,2.7,0,.2.1.3.4.3.9,0,1.7,0,2.6,0,.3,0,.4-.1.4-.4,0-.9,0-1.8,0-2.8,0-.3-.1-.4-.4-.4-.5,0-1,0-1.5,0ZM39.6,10c0-.1,0-.2,0-.2-.2-1.2-.6-2.2-1.4-3,0,0-.3-.1-.4-.2-.6,0-1.2,0-1.8,0-.4,0-.7,0-1.1,0,0,.1,0,.2,0,.2.4.9.6,1.9.7,2.9,0,.3.2.4.5.4.9,0,1.8,0,2.7,0,.2,0,.5,0,.7,0ZM16.4,10.1s0,0,0,0c.5,0,1,0,1.6,0,.2,0,.3,0,.3-.3,0-1-.1-1.9-.4-2.9,0-.2-.2-.3-.4-.3-.9,0-1.7,0-2.6,0-.3,0-.4.1-.4.4,0,.9,0,1.9,0,2.8,0,.2,0,.3.3.3.5,0,1.1,0,1.6,0ZM24.8,10.1h0c.5,0,1.1,0,1.6,0,.2,0,.3,0,.3-.3-.2-1.1-.7-2.1-1.3-3,0,0-.2-.2-.3-.2-.9,0-1.8,0-2.7,0-.2,0-.2,0-.2.2.2,1,.5,1.9.7,2.9,0,.2.2.3.4.3.5,0,1.1,0,1.6,0ZM16.5,10.9h0c-.5,0-1.1,0-1.6,0-.3,0-.3.1-.3.4.2,1,.5,2,1.2,2.8,0,.1.3.2.4.2.9,0,1.8,0,2.7,0,.3,0,.3-.1.2-.4-.4-.9-.6-1.8-.7-2.8,0-.2-.1-.3-.3-.3-.5,0-1.1,0-1.6,0ZM11.8,10.9s0,0,0,0c-.5,0-1,0-1.6,0-.3,0-.4.1-.3.4.2.9.3,1.9.5,2.8,0,.2.2.3.4.3.9,0,1.7,0,2.6,0,.3,0,.4,0,.4-.3,0-1,0-1.9,0-2.9,0-.2,0-.3-.3-.3-.5,0-1,0-1.6,0ZM7.6,10.2c.4,0,.8,0,1.2,0,.2,0,.3,0,.4-.3.1-1,.3-1.9.4-2.9,0-.3,0-.4-.3-.4-.6,0-1.1,0-1.7,0-.3,0-.6.2-.7.5-.4.9-.6,1.9-.7,2.9,0,.2,0,.3.3.3.4,0,.8,0,1.2,0ZM31.6,14.4c.8,0,1.5,0,2.3,0,0,0,.2-.1.2-.2.5-.9.8-1.9.8-3,0-.4,0-.4-.4-.4-.7,0-1.4,0-2.1,0-.3,0-.5.1-.5.5,0,.5-.1,1.1-.2,1.6,0,.5-.1,1-.2,1.5ZM7.8,10.9s0,0,0,0c-.4,0-.9,0-1.3,0-.2,0-.3.1-.3.3,0,1,.3,2,.8,2.9.1.2.2.3.5.3.6,0,1.2,0,1.8,0,.2,0,.3-.1.2-.3-.1-.9-.3-1.9-.4-2.8,0-.2-.1-.3-.4-.3-.3,0-.7,0-1,0ZM33.5,10.1s0,0,0,0c.4,0,.7,0,1.1,0,.3,0,.4,0,.3-.3,0-1-.3-2-.8-2.9,0,0-.2-.2-.3-.2-.7,0-1.4,0-2,0-.2,0-.2.1-.2.3.2,1,.3,1.9.4,2.9,0,.2.2.4.4.3.4,0,.7,0,1.1,0ZM18.6,6.6c.2,1.2.3,2.3.5,3.4,0,0,.2.1.2.1.8,0,1.5,0,2.3,0,.2,0,.3,0,.3-.3,0-1.1-.3-2-.8-3,0,0-.2-.2-.3-.2-.7,0-1.5,0-2.3,0ZM22.5,14.3c0-1.1-.2-2.1-.3-3.1,0-.2-.2-.3-.4-.3-.9,0-1.8,0-2.7,0,0,1.2.3,2.3.9,3.3,0,0,.1.1.2.1.7,0,1.5,0,2.2,0ZM17.5,5.9c0-.1,0-.2,0-.3-.5-1.2-1.3-2.2-2.3-3,0,0-.2,0-.2-.1-.2,0-.3,0-.4.2,0,.1,0,.2,0,.3,0,.9,0,1.8,0,2.7,0,0,.2.3.2.3.9,0,1.9,0,2.8,0ZM10.6,5.9c1,0,1.9,0,2.9,0,0,0,.2-.2.2-.3,0-1,0-1.9,0-2.9,0-.3-.1-.3-.3-.2-1.4.8-2.3,1.9-2.8,3.4ZM30.5,5.8c-.5-1.4-1.3-2.5-2.4-3.3-.4-.3-.7,0-.7.4,0,.9,0,1.7,0,2.6,0,.3,0,.3.3.3.8,0,1.5,0,2.3,0,.1,0,.3,0,.5,0ZM10.8,15.2c0,0,0,.2,0,.2.4,1.4,1.3,2.4,2.5,3.1.3.1.4,0,.4-.3,0-.9,0-1.9-.1-2.8,0,0-.1-.2-.2-.2-.9,0-1.7,0-2.6,0ZM23.7,15.2c0,.2,0,.3.1.4.4,1,1,1.9,1.9,2.6.2.2.4.3.6.4.3.1.4,0,.4-.3,0-.9,0-1.8,0-2.7,0-.3-.1-.4-.4-.4-.7,0-1.5,0-2.2,0h-.4ZM29,15.1s0,0,0,0c-.4,0-.8,0-1.2,0-.2,0-.3,0-.3.3,0,.9,0,1.9,0,2.8,0,.2,0,.3.3.2.6-.3,1.2-.6,1.5-1.2.4-.6.7-1.2,1-1.8.1-.2,0-.3-.2-.3-.4,0-.8,0-1.2,0ZM26.7,4.1c0-.5,0-.9,0-1.4,0-.4,0-.5-.5-.3-.8.4-1.5,1-1.9,1.9-.1.2,0,.3,0,.5.2.2.4.3.6.5.4.4.8.6,1.4.5.3,0,.4-.1.4-.4,0-.5,0-.9,0-1.4ZM9.5,3c-2.2.5-4.1,1.5-5.8,2.9.7,0,1.3,0,2,0,.7,0,1.2-.2,1.6-.8.6-.9,1.4-1.5,2.2-2.1ZM18.7,3c0,0,0,0,0,0,1.1.7,1.9,1.5,2.6,2.6,0,.1.3.2.4.2.6,0,1.1,0,1.7,0,.3,0,.6,0,.9,0,0,0,0,0,0-.1-1.6-1.4-3.5-2.3-5.7-2.8ZM4,15.2c.1.9,4.1,2.9,5.5,3-1.1-.8-2.1-1.7-2.8-2.8,0,0-.2-.1-.3-.1-.8,0-1.6,0-2.4,0ZM14.5,16.9h0c0,.5,0,.9,0,1.4,0,.3,0,.4.4.2.8-.4,1.5-1.1,1.9-1.9.1-.2,0-.3,0-.5-.3-.2-.5-.4-.7-.7-.3-.3-.7-.5-1.2-.4-.2,0-.4.1-.3.4,0,.5,0,.9,0,1.4ZM22.3,18c0,0-.2-.1-.3-.2-.7-.7-1.4-1.3-2-2-.4-.5-.7-.7-1.3-.6-.6,0-1.3,0-1.9,0,0,0,0,0,0,.1,1.6,1.3,3.4,2.3,5.5,2.8ZM37.2,5.8s0,0,0-.1c-1.6-1.3-3.4-2.3-5.5-2.7,0,0,0,0,0,0,1,.7,1.8,1.5,2.5,2.5,0,.1.3.2.4.2.7,0,1.4,0,2.1,0,.1,0,.3,0,.4,0ZM37.2,15.2s0,0,0-.1c-.7,0-1.5,0-2.2,0-.3,0-.4.1-.6.3-.6.7-1.2,1.3-1.8,2-.2.3-.6.4-.9.7,2.1-.6,4-1.4,5.5-2.9ZM11.5,2.8c-1.7.5-2.9,1.6-3.9,3.1.7,0,1.4,0,2.1,0,.1,0,.3-.2.4-.3.1-.2.2-.4.3-.6.4-.7.8-1.4,1.2-2.1ZM16.5,2.8c0,.1,0,.1.1.2.7.8,1.2,1.7,1.6,2.7,0,.2.2.2.4.2.4,0,.8,0,1.3,0,.2,0,.4,0,.6,0h0c-1-1.5-2.3-2.5-4-3ZM7.7,15.2c.3.9,3,3,3.9,3-.7-.8-1.3-1.8-1.6-2.8,0-.1-.2-.2-.3-.2-.7,0-1.3,0-2,0ZM29.7,2.8c.5.9,1,1.9,1.6,2.8,0,0,.2.2.3.2.4,0,.9,0,1.3,0,.2,0,.4,0,.7,0-1.1-1.4-2.3-2.5-3.9-3ZM20.7,15.2c.9,1.5,2.2,2.4,3.7,2.9-.6-.8-1.2-1.7-1.5-2.7,0,0-.1-.1-.2-.1-.6,0-1.3,0-1.9,0ZM29.8,18.1c.2,0,.4-.2.6-.3,1.1-.6,2.1-1.3,2.9-2.3,0,0,0-.2.1-.3-.1,0-.2,0-.3,0-.3,0-.6,0-.9,0-.6,0-1,.2-1.3.8-.3.8-.8,1.4-1.2,2.2ZM24.5,2.7s0,0,0,0c-.5.3-1.1.6-1.6.9,0,0,0,.2,0,.3,0,.1.2.2.3.2.1,0,.3,0,.4,0,.3-.4.7-.8,1-1.3ZM18.4,17.4s0,0,0-.1c-.2,0-.3-.2-.5-.3,0,0-.3,0-.3,0-.3.3-.5.7-.8,1,0,0,0,0,0,0l1.5-.8ZM26.6,7.4s0,0,.1,0c0-.3,0-.6-.1-.8,0,0-.3,0-.6,0,.2.3.4.6.6.9ZM14.9,14.4s0,0,0,0c-.1-.2-.3-.5-.4-.7-.1.4,0,.7.3.8ZM19.4,17.9s0,0,0-.1c-.2-.1-.4,0-.6.2,0,0,0,0,0,.1.2,0,.4-.1.6-.2Z"/>
    </g>
  </g>
</svg>