<?xml version="1.0" encoding="UTF-8"?>
<svg xmlns="http://www.w3.org/2000/svg" version="1.1" viewBox="0 0 41 21">
  <defs>
    <style>
      .cls-1 {
        fill: #fff;
      }
    </style>
  </defs>
  <!-- Generator: Adobe Illustrator 28.7.1, SVG Export Plug-In . SVG Version: 1.2.0 Build 142)  -->
  <g>
    <g id="Layer_1">
      <g id="Layer_1-2" data-name="Layer_1">
        <path class="cls-1" d="M14.2,1.3c1.7,0,3.6.3,5.4.9.6.2,1.2.2,1.8,0,2.4-.8,4.9-1.1,7.5-.8,2.5.2,4.9.8,7,2.2,1.4.8,2.6,1.8,3.5,3.2,1.8,2.9,1.3,6.7-1.3,9-2.3,2.1-5,3.3-8.1,3.7s-6.2.2-9.2-.8h-.5c-2.3.8-4.6,1.1-7,1.1-3.6-.1-7-1.1-9.8-3.4-1.5-1.3-2.6-2.9-2.9-4.9-.3-1.8.3-3.3,1.3-4.8,1-1.4,2.3-2.3,3.7-3.1,2.6-1.4,5.4-2.2,8.6-2.1v-.2ZM3.5,10.3h1.6c.2,0,.3,0,.3-.3.2-1,.5-2,.7-3,0-.3,0-.4-.3-.4h-2.5c-.2,0-.5.2-.6.3-.6.9-1,1.8-1.2,2.9,0,.3,0,.4.3.4h1.7ZM3.5,10.9h-1.7c-.2,0-.3,0-.2.3.2,1.1.6,2.2,1.3,3.1,0,.2.4.3.5.3h2.5c.3,0,.3-.1.2-.3-.2-1-.5-2-.7-3,0-.2,0-.3-.4-.3h-1.6.1ZM29.4,10.1h1.6c.2,0,.3,0,.3-.3,0-1-.1-2-.5-3,0,0-.2-.2-.3-.2h-2.7c-.3,0-.4.2-.4.5v2.6c0,.4,0,.5.5.5h1.5ZM35,14.4h3c0,0,.3-.1.3-.2.3-.5.7-1.1,1-1.6.2-.5.3-1.1.5-1.6h-3.7c-.3,0-.3.2-.3.4,0,.5,0,.9-.2,1.4,0,.6-.3,1.2-.5,1.8v-.2ZM29.4,10.8h-1.5c-.3,0-.4,0-.4.4v2.8c0,.3,0,.4.4.4h2.6c.3,0,.4-.1.5-.4.3-.9.4-1.9.4-2.9s0-.3-.3-.3h-1.7ZM11.8,10.2h1.6c.3,0,.4,0,.4-.4v-2.9c0-.2,0-.3-.3-.3h-2.7c-.2,0-.3,0-.3.3-.3,1-.5,2-.5,3s0,.3.3.3h1.6-.1ZM24.8,10.8h-1.5c-.4,0-.5,0-.4.4.1.9.3,1.8.4,2.7,0,.2.1.3.4.3h2.6c.3,0,.4-.1.4-.4v-2.8c0-.3-.1-.4-.4-.4h-1.5v.2ZM39.6,10v-.2c-.2-1.2-.6-2.2-1.4-3,0,0-.3,0-.4-.2h-2.9v.2c.4.9.6,1.9.7,2.9,0,.3.2.4.5.4h3.5ZM16.4,10.1h1.6c.2,0,.3,0,.3-.3,0-1-.1-1.9-.4-2.9,0-.2-.2-.3-.4-.3h-2.6c-.3,0-.4,0-.4.4v2.8c0,.2,0,.3.3.3h1.6ZM24.8,10.1h1.6c.2,0,.3,0,.3-.3-.2-1.1-.7-2.1-1.3-3,0,0-.2-.2-.3-.2h-2.7q-.2,0-.2.2c.2,1,.5,1.9.7,2.9,0,.2.2.3.4.3h1.6-.1ZM16.5,10.9h-1.6c-.3,0-.3.1-.3.4.2,1,.5,2,1.2,2.8,0,.1.3.2.4.2h2.7c.3,0,.3-.1.2-.4-.4-.9-.6-1.8-.7-2.8,0-.2-.1-.3-.3-.3h-1.6ZM11.8,10.9h-1.6c-.3,0-.4.1-.3.4.2.9.3,1.9.5,2.8,0,.2.2.3.4.3h2.6c.3,0,.4,0,.4-.3v-2.9c0-.2,0-.3-.3-.3h-1.7ZM7.6,10.2h1.2c.2,0,.3,0,.4-.3.1-1,.3-1.9.4-2.9,0-.3,0-.4-.3-.4h-1.7c-.3,0-.6.2-.7.5-.4.9-.6,1.9-.7,2.9,0,.2,0,.3.3.3h1.2,0ZM31.6,14.4h2.3s.2-.1.2-.2c.5-.9.8-1.9.8-3s0-.4-.4-.4h-2.1c-.3,0-.5.1-.5.5s-.1,1.1-.2,1.6c0,.5-.1,1-.2,1.5h.1ZM7.8,10.9h-1.3c-.2,0-.3.1-.3.3,0,1,.3,2,.8,2.9,0,.2.2.3.5.3h1.8c.2,0,.3-.1.2-.3-.1-.9-.3-1.9-.4-2.8,0-.2-.1-.3-.4-.3h-1,0ZM33.5,10.1h1.1c.3,0,.4,0,.3-.3,0-1-.3-2-.8-2.9,0,0-.2-.2-.3-.2h-2c-.2,0-.2,0-.2.3.2,1,.3,1.9.4,2.9,0,.2.2.4.4.3h1.1ZM18.6,6.6c.2,1.2.3,2.3.5,3.4h.2c.8.1,1.5.1,2.3.1s.3,0,.3-.3c0-1.1-.3-2-.8-3,0,0-.2-.2-.3-.2h-2.3,0ZM22.5,14.3c0-1.1-.2-2.1-.3-3.1,0-.2-.2-.3-.4-.3h-2.7c0,1.2.3,2.3.9,3.3,0,0,.1.1.2.1h2.3ZM17.5,5.9v-.3c-.5-1.2-1.3-2.2-2.3-3,0,0-.2,0-.2,0-.2,0-.3,0-.4.2v3l.2.3h2.8-.1ZM10.6,5.9h2.9s.2-.2.2-.3v-2.9c0-.3-.1-.3-.3-.2-1.4.8-2.3,1.9-2.8,3.4ZM30.5,5.8c-.5-1.4-1.3-2.5-2.4-3.3-.4-.3-.7,0-.7.4v2.6q0,.3.3.3h2.8ZM10.8,15.2v.2c.4,1.4,1.3,2.4,2.5,3.1.3.1.4,0,.4-.3,0-.9,0-1.9-.1-2.8,0,0-.1-.2-.2-.2-.9,0-1.7,0-2.6,0ZM23.7,15.2c0,.2,0,.3.1.4.4,1,1,1.9,1.9,2.6.2.2.4.3.6.4.3.1.4,0,.4-.3v-2.7c0-.3-.1-.4-.4-.4h-2.6ZM29,15.1h-1.2c-.2,0-.3,0-.3.3v2.8c0,.2,0,.3.3.2.6-.3,1.2-.6,1.5-1.2.4-.6.7-1.2,1-1.8.1-.2,0-.3-.2-.3h-1.2.1ZM26.7,4.1v-1.4c0-.4,0-.5-.5-.3-.8.4-1.5,1-1.9,1.9-.1.2,0,.3,0,.5.2.2.4.3.6.5.4.4.8.6,1.4.5.3,0,.4,0,.4-.4v-1.4h0ZM9.5,3c-2.2.5-4.1,1.5-5.8,2.9h2c.7,0,1.2-.2,1.6-.8.6-.9,1.4-1.5,2.2-2.1ZM18.7,3h0c1.1.7,1.9,1.5,2.6,2.6,0,0,.3.2.4.2h2.6c-1.6-1.5-3.5-2.4-5.7-2.9h0ZM4,15.2c0,.9,4.1,2.9,5.5,3-1.1-.8-2.1-1.7-2.8-2.8,0,0-.2-.1-.3-.1h-2.4,0ZM14.5,16.9h0v1.4c0,.3,0,.4.4.2.8-.4,1.5-1.1,1.9-1.9s0-.3,0-.5c-.3-.2-.5-.4-.7-.7-.3-.3-.7-.5-1.2-.4-.2,0-.4.1-.3.4v1.4h0ZM22.3,18s-.2-.1-.3-.2c-.7-.7-1.4-1.3-2-2-.4-.5-.7-.7-1.3-.6h-1.9c1.6,1.4,3.4,2.4,5.5,2.9h0ZM37.2,5.8h0c-1.6-1.4-3.4-2.4-5.5-2.8h0c1,.7,1.8,1.5,2.5,2.5,0,0,.3.2.4.2h2.6ZM37.2,15.2h0c-.7-.1-1.5-.1-2.2-.1s-.4.1-.6.3c-.6.7-1.2,1.3-1.8,2-.2.3-.6.4-.9.7,2.1-.6,4-1.4,5.5-2.9ZM11.5,2.8c-1.7.5-2.9,1.6-3.9,3.1h2.1c.1,0,.3-.2.4-.3.1-.2.2-.4.3-.6.4-.7.8-1.4,1.2-2.1h0ZM16.5,2.8q0,0,.1.2c.7.8,1.2,1.7,1.6,2.7,0,.2.2.2.4.2h1.9c-1-1.5-2.3-2.5-4-3h0ZM7.7,15.2c.3.9,3,3,3.9,3-.7-.8-1.3-1.8-1.6-2.8,0-.1-.2-.2-.3-.2-.7,0-1.3,0-2,0ZM29.7,2.8c.5.9,1,1.9,1.6,2.8,0,0,.2.2.3.2h2c-1.1-1.4-2.3-2.5-3.9-3ZM20.7,15.2c.9,1.5,2.2,2.4,3.7,2.9-.6-.8-1.2-1.7-1.5-2.7,0,0-.1-.1-.2-.1h-2ZM29.8,18.1c.2,0,.4-.2.6-.3,1.1-.6,2.1-1.3,2.9-2.3,0,0,0-.2,0-.3h-1.2c-.6,0-1,.2-1.3.8-.3.8-.8,1.4-1.2,2.2h.1ZM24.5,2.7h0c-.5.3-1.1.6-1.6.9v.3c0,0,.2.2.3.2h.4c.3-.4.7-.8,1-1.3h0ZM18.4,17.4h0c-.2-.1-.3-.3-.5-.4h-.3c-.3.3-.5.7-.8,1h0l1.5-.8v.2ZM26.6,7.4h.1c0-.3,0-.6-.1-.8h-.6c.2.3.4.6.6.9h0ZM14.9,14.4h0c-.1-.2-.3-.5-.4-.7-.1.4,0,.7.3.8h0ZM19.4,17.9h0c-.2-.2-.4-.1-.6.1h0c.2.1.4,0,.6-.1Z"/>
      </g>
    </g>
  </g>
</svg>