<?xml version="1.0" encoding="UTF-8"?>
<svg xmlns="http://www.w3.org/2000/svg" version="1.1" viewBox="0 0 58.2 9.2">
  <defs>
    <style>
      .cls-1 {
        fill: #fff;
      }
    </style>
  </defs>
  <!-- Generator: Adobe Illustrator 28.7.1, SVG Export Plug-In . SVG Version: 1.2.0 Build 142)  -->
  <g>
    <g id="Layer_1">
      <g>
        <path class="cls-1" d="M4.8.9l-3.4,7.7h2.6l.5-1.3h2.9l.5,1.3h2.7L7.3.9h-2.6ZM5.3,5.4l.7-1.9.7,1.9h-1.5Z"/>
        <rect class="cls-1" x="13.8" y=".5" width="2.5" height="8.2"/>
        <path class="cls-1" d="M25.6,2.9c-.4-.2-.9-.4-1.5-.4s-1,.1-1.3.3c0,0-.2.1-.2.2V.5h-2.5v8.2h2.4v-.5c0,.1.2.2.3.3.3.2.8.3,1.3.3s1-.1,1.5-.4.8-.6,1.1-1.1c.3-.5.4-1,.4-1.7s-.1-1.2-.4-1.7c-.3-.5-.6-.8-1.1-1.1ZM24.4,6.3c0,.2-.2.3-.4.4-.1,0-.3.1-.5.1s-.3,0-.5-.1c-.1,0-.3-.2-.4-.4s-.1-.4-.1-.7,0-.5.1-.7.2-.3.4-.4c.1,0,.3-.1.5-.1s.3,0,.5.1c.1,0,.3.2.4.4s.1.4.1.7,0,.5-.1.7Z"/>
        <path class="cls-1" d="M33.3,2.5c-.5,0-1,0-1.4.2-.5.1-.9.3-1.3.5l.8,1.6c.2-.1.4-.3.7-.3.3,0,.6-.1.8-.1.4,0,.7,0,.9.2.1.1.2.3.2.5h-1c-.6,0-1.1,0-1.5.2-.4.1-.7.3-.9.6-.2.3-.3.6-.3,1s0,.7.3.9.4.5.7.7.7.3,1.2.3.9-.1,1.2-.3c.2-.1.4-.4.5-.6v.8h2.3v-3.2c0-1-.3-1.7-.9-2.2s-1.4-.7-2.4-.7ZM33.7,7.1c-.1,0-.3.1-.5.1s-.3,0-.4-.1-.2-.2-.2-.3,0-.3.2-.4c.1,0,.3-.1.6-.1h.6v.4c0,.2-.2.3-.3.4Z"/>
        <path class="cls-1" d="M45.8,2.8c-.4-.2-.8-.3-1.3-.3s-.9.1-1.3.3c-.2.1-.3.2-.5.4v-.6h-2.4v6h2.5v-2.8c0-.3,0-.5.1-.7s.2-.3.3-.4c.1,0,.3-.1.5-.1s.4,0,.5.2c.1.2.2.4.2.8v3h2.5v-3.4c0-.6-.1-1.1-.3-1.5s-.5-.7-.9-.9Z"/>
        <path class="cls-1" d="M55.9,3.2c-.6-.5-1.4-.7-2.4-.7s-1,0-1.4.2c-.5.1-.9.3-1.3.5l.8,1.6c.2-.1.4-.3.7-.3s.6-.1.8-.1c.4,0,.7,0,.9.2.1.1.2.3.2.5h-1c-.6,0-1.1,0-1.5.2-.4.1-.7.3-.9.6-.2.3-.3.6-.3,1s0,.7.3.9.4.5.7.7.7.3,1.2.3.9-.1,1.2-.3c.2-.1.4-.4.5-.6v.8h2.3v-3.2c0-1-.3-1.7-.9-2.2ZM54,7.1c-.1,0-.3.1-.5.1s-.3,0-.4-.1c-.1,0-.2-.2-.2-.3s0-.3.2-.4c.1,0,.3-.1.6-.1h.6v.4c0,.2-.2.3-.3.4Z"/>
      </g>
    </g>
  </g>
</svg>