<?xml version="1.0" encoding="UTF-8"?>
<svg xmlns="http://www.w3.org/2000/svg" version="1.1" viewBox="0 0 58.2 9.2">
  <defs>
    <style>
      .cls-1 {
        fill: #fff;
      }

      .cls-2 {
        fill: none;
      }
    </style>
  </defs>
  <!-- Generator: Adobe Illustrator 28.7.1, SVG Export Plug-In . SVG Version: 1.2.0 Build 142)  -->
  <g>
    <g id="Layer_1">
      <rect class="cls-2" x="-5.4" y="-.5" width="69" height="11"/>
      <g>
        <path class="cls-1" d="M4.3.8L.8,8.8h2.3l.6-1.6h3.4l.6,1.6h2.4L6.6.8h-2.2ZM4.4,5.6l1-2.6,1,2.6h-2.1Z"/>
        <rect class="cls-1" x="13.5" y=".3" width="2.2" height="8.5"/>
        <path class="cls-1" d="M25.4,2.9c-.5-.3-1-.4-1.5-.4s-1,.1-1.4.3c-.1,0-.3.2-.4.3V.3h-2.2v8.5h2.1v-.6c.1.2.3.3.4.4.4.2.8.3,1.4.3s1.1-.1,1.5-.4c.5-.3.8-.6,1.1-1.1.3-.5.4-1,.4-1.7s-.1-1.2-.4-1.7c-.3-.5-.6-.8-1.1-1.1ZM24.6,6.5c-.1.2-.3.4-.5.5-.2.1-.4.2-.7.2s-.5,0-.7-.2c-.2-.1-.4-.3-.5-.5s-.2-.5-.2-.8,0-.6.2-.8.3-.4.5-.5c.2-.1.4-.2.7-.2s.5,0,.7.2c.2.1.4.3.5.5s.2.5.2.8,0,.6-.2.8Z"/>
        <path class="cls-1" d="M33.3,2.5c-.5,0-1,0-1.5.2-.5.1-.9.3-1.3.5l.7,1.5c.2-.2.5-.3.8-.4.3,0,.6-.1.9-.1.5,0,.8,0,1,.3.2.2.3.4.3.7h-1.2c-.6,0-1.2,0-1.6.2-.4.1-.7.4-.9.6-.2.3-.3.6-.3,1s0,.7.3,1c.2.3.4.5.8.7.3.2.8.3,1.3.3s1-.1,1.3-.3c.2-.2.4-.4.5-.6v.9h2v-3.4c0-1-.3-1.7-.8-2.2-.6-.5-1.3-.7-2.3-.7ZM33.9,7.3c-.2.1-.4.2-.6.2s-.5,0-.6-.2c-.1-.1-.2-.3-.2-.5s0-.3.2-.5c.1-.1.4-.2.7-.2h.9v.5c0,.2-.2.4-.4.5Z"/>
        <path class="cls-1" d="M46.1,2.8c-.4-.2-.8-.3-1.3-.3s-1,.1-1.4.3c-.2.1-.4.3-.6.5v-.7h-2.1v6.2h2.2v-3c0-.3,0-.6.2-.8.1-.2.3-.4.4-.5.2-.1.4-.2.6-.2s.6.1.8.3c.2.2.3.5.3,1v3.2h2.2v-3.6c0-.6-.1-1.2-.3-1.6-.2-.4-.5-.7-.9-.9Z"/>
        <path class="cls-1" d="M56.6,3.2c-.6-.5-1.3-.7-2.3-.7s-1,0-1.5.2c-.5.1-.9.3-1.3.5l.7,1.5c.2-.2.5-.3.8-.4.3,0,.6-.1.9-.1.5,0,.8,0,1,.3.2.2.3.4.3.7h-1.2c-.6,0-1.2,0-1.6.2-.4.1-.7.4-.9.6s-.3.6-.3,1,0,.7.3,1c.2.3.4.5.8.7.3.2.8.3,1.3.3s1-.1,1.3-.3c.2-.2.4-.4.5-.6v.9h2v-3.4c0-1-.3-1.7-.8-2.2ZM54.8,7.3c-.2.1-.4.2-.6.2s-.5,0-.6-.2c-.1-.1-.2-.3-.2-.5s0-.3.2-.5c.1-.1.4-.2.7-.2h.9v.5c0,.2-.2.4-.4.5Z"/>
      </g>
    </g>
  </g>
</svg>